<svg viewBox="0 0 235 30" id="logo" fill="none"
  xmlns="http://www.w3.org/2000/svg">
  <defs>
    <linearGradient id="Gradient1" x1="0" x2="1" y1="0" y2="1">
      <stop offset="20%" stop-color="#666" id="stop1" />
      <stop offset="40%" stop-color="#444" id="stop2" />
      <stop offset="60%" stop-color="#222" id="stop3" />
      <stop offset="80%" stop-color="#000" id="stop4" />
    </linearGradient>

    <!-- MASK GRADIENT -->
    <linearGradient id="Gradient2" x1="0" x2="1" y1="0" y2="1">
      <stop offset="20%" stop-color="#fff" id="stop5" />
      <stop offset="40%" stop-color="#ddd" id="stop6" />
      <stop offset="60%" stop-color="#aaa" id="stop7" />
      <stop offset="80%" stop-color="#777" id="stop8" />
    </linearGradient>

    <mask id="mask">
      <rect width="100%" height="100%" fill="url(#Gradient2)" />
    </mask>

    <filter id="shadow">
      <feDropShadow dx="0.2" dy="0.4" stdDeviation="0.2" />
    </filter>
  </defs>



  <path fill="url(#Gradient1)" mask="url(#mask)" paint-order="stroke"
    stroke="white" stroke-width="3" stroke-linejoin="miter" miterlimit="4"
    d="M1.22001 1.115H4.82001L8.21001 9.74H8.39001L12.17 1.115H15.41L16.25 23H12.53L12.155 8.255H11.93L8.79501 17.12H7.74501L4.46001 8.255H4.26501L3.99501 23H0.350006L1.22001 1.115Z" />
  <path fill="url(#Gradient1)" paint-order="stroke" stroke="white"
    stroke-width="3" stroke-linejoin="miter" miterlimit="4"
    d="M33.7585 23H29.3635V21.68H29.0635C27.3385 22.88 25.4035 23.345 23.8735 23.345C21.0085 23.345 19.2535 21.695 19.2535 19.22C19.2535 15.065 25.0585 13.97 29.3635 13.745V12.065C29.3635 10.835 28.2385 10.385 26.7385 10.385C25.1485 10.385 22.7485 10.775 19.8385 11.75L20.2135 7.73C22.3435 7.1 24.8635 6.635 27.3535 6.635C31.6585 6.635 33.7585 8.015 33.7585 11.285V23ZM23.7235 18.425C23.7235 19.67 24.7435 20.285 26.1535 20.285C27.2485 20.285 28.3885 19.94 29.3635 19.445V16.58C28.2235 16.505 26.4085 16.46 25.0885 16.82C24.1285 17.075 23.7235 17.57 23.7235 18.425Z" />
  <path fill="url(#Gradient1)" paint-order="stroke" stroke="white"
    stroke-width="3" stroke-linejoin="miter" miterlimit="4"
    d="M45.657 6.995V10.94H45.897C46.707 8.33 49.407 6.65 52.062 6.65C52.482 6.65 52.887 6.695 53.307 6.8L53.412 10.775C50.637 10.73 48.342 11.42 45.987 12.695V19.505H50.757L50.337 23H38.217L37.782 19.505H41.562V10.49H37.662L38.082 6.995H45.657Z" />
  <path fill="url(#Gradient1)" paint-order="stroke" stroke="white"
    stroke-width="3" stroke-linejoin="miter" miterlimit="4"
    d="M56.0106 10.37V8.315L62.9706 3.29H64.3806V6.995H71.2056L70.5756 10.37H64.5456V17.735C64.5456 19.025 65.0256 19.775 67.2306 19.775C68.4156 19.775 69.8706 19.535 70.8605 19.34L70.5756 22.595C69.3306 23.015 67.8156 23.345 65.8656 23.345C62.1006 23.345 60.1506 22.19 60.1506 18.785V10.37H56.0106Z" />
  <path fill="url(#Gradient1)" paint-order="stroke" stroke="white"
    stroke-width="3" stroke-linejoin="miter" miterlimit="4"
    d="M79.0091 6.995C79.8941 10.91 81.3341 14.765 82.8941 17.87H83.1041C84.4991 14.885 85.6541 11.555 86.4941 6.995H90.8741C89.8541 11.84 87.7241 16.775 86.0141 20.51L85.5491 21.5C83.8841 25.145 80.3441 29.345 76.7591 29.345C76.0841 29.345 75.5291 29.225 75.1091 29.105L74.1941 25.31C74.7641 25.46 75.5291 25.595 76.3541 25.595C78.6341 25.595 79.8791 24.515 80.6441 23L80.8241 22.655C77.9441 17.495 76.0391 12.95 74.4791 6.995H79.0091Z" />
  <path fill="url(#Gradient1)" paint-order="stroke" stroke="white"
    stroke-width="3" stroke-linejoin="miter" miterlimit="4"
    d="M108.593 23H104.138V12.08C104.138 10.565 103.343 10.04 101.978 10.04C100.628 10.04 99.4426 10.565 98.4526 11.285V23H94.0426V6.98H98.2276V9.26H98.4376C99.5476 7.655 101.723 6.65 104.003 6.65C106.868 6.65 108.518 8.285 108.533 10.955L108.593 23Z" />
  <path paint-order="stroke" stroke="white" stroke-width="3"
    stroke-linejoin="miter" miterlimit="4" ll="url(#Gradient1)"
    d="M118.736 11.645H115.121L114.746 1.1H119.111L118.736 11.645Z" />
  <path fill="url(#Gradient1)" paint-order="stroke" stroke="white"
    stroke-width="3" stroke-linejoin="miter" miterlimit="4"
    d="M132.325 6.635C134.005 6.635 135.43 6.845 136.705 7.175L136.84 10.775C134.095 10.31 132.205 10.055 130.3 10.055C128.77 10.055 128.155 10.31 127.885 10.535C127.675 10.7 127.6 10.895 127.6 11.195C127.6 12.125 128.815 12.395 131.74 13.085C135.085 13.895 137.44 14.66 137.44 17.675C137.44 20.84 134.77 23.33 128.905 23.33C126.925 23.33 125.29 23.06 124.015 22.79L123.67 18.77C126.325 19.475 129.295 20.045 131.185 20.045C132.475 20.045 132.985 19.79 133.255 19.565C133.435 19.4 133.555 19.145 133.555 18.815C133.555 17.39 131.41 17.225 128.155 16.37C125.59 15.695 123.685 14.6 123.685 12.065C123.685 8.45 127.45 6.635 132.325 6.635Z" />
  <path fill="url(#Gradient1)" paint-order="stroke" stroke="white"
    stroke-width="3" stroke-linejoin="miter" miterlimit="4"
    d="M173.347 23C172.237 19.145 171.337 15.005 170.647 11.12H170.332C169.627 15.02 168.652 19.16 167.467 23L164.782 22.985C162.742 16.055 161.362 8.885 160.882 1.1H165.127C165.367 5.6 165.937 10.04 166.762 14.435H167.062C168.127 10.835 168.787 7.745 169.282 4.775H172.147C172.582 7.775 173.197 10.835 174.142 14.435H174.487C175.312 10.16 175.987 5.6 176.257 1.1H180.172C179.692 8.885 178.312 16.055 176.272 22.985L173.347 23Z" />
  <path fill="url(#Gradient1)" paint-order="stroke" stroke="white"
    stroke-width="3" stroke-linejoin="miter" miterlimit="4"
    d="M184.21 23L184.06 19.52H187.645V3.545H183.82L183.97 0.0650024H192.07V19.52H195.805L195.655 23H184.21Z" />
  <path fill="url(#Gradient1)" paint-order="stroke" stroke="white"
    stroke-width="3" stroke-linejoin="miter" miterlimit="4"
    d="M206.789 23.36C202.409 23.36 199.004 20.555 199.004 15.08C199.004 8.855 203.369 6.635 207.194 6.635C211.499 6.635 214.784 9.44 214.784 14.915C214.784 21.14 210.584 23.36 206.789 23.36ZM203.264 14C203.264 17.435 203.669 20.225 207.104 20.225C208.199 20.225 208.919 20.03 209.429 19.685C209.984 19.295 210.539 18.005 210.539 15.935C210.539 12.53 210.119 9.74 206.684 9.74C205.604 9.74 204.899 9.92 204.359 10.28C203.804 10.64 203.264 11.93 203.264 14Z" />
  <path fill="url(#Gradient1)" paint-order="stroke" stroke="white"
    stroke-width="3" stroke-linejoin="miter" miterlimit="4"
    d="M224.117 17.24H223.862L223.652 17.96C223.397 19.04 223.952 19.115 224.537 19.22L229.682 20.15C231.377 20.465 233.957 20.945 233.957 23.795C233.957 27.68 229.157 29.585 224.027 29.585C220.187 29.585 216.767 28.505 216.767 25.91C216.767 24.755 217.427 23.72 218.912 22.82L220.982 21.56C220.592 21.185 220.382 20.75 220.382 20.285C220.382 19.55 220.712 18.785 221.027 18.035L221.492 16.865C219.062 16.115 217.532 14.3 217.532 12.185C217.532 8.66 221.147 6.62 225.047 6.62C226.802 6.62 228.302 7.04 229.442 7.745C230.447 7.25 232.127 6.545 233.702 6.44L234.257 9.125L230.687 9.38C231.317 9.95 231.857 10.79 231.857 12.02C231.857 15.275 228.227 17.24 224.117 17.24ZM221.027 25.01C221.027 26.42 222.827 26.825 224.882 26.825C227.987 26.825 229.967 25.94 229.967 24.89C229.967 24.155 229.082 23.87 227.537 23.57L223.712 22.82C223.412 22.76 223.127 22.685 222.857 22.595C221.972 23.15 221.027 23.87 221.027 25.01ZM221.687 11.615C221.687 13.22 222.377 14.51 225.197 14.51C226.427 14.51 226.982 14.315 227.297 14.075C227.597 13.82 227.777 13.385 227.777 12.35C227.777 10.745 227.072 9.455 224.267 9.455C223.037 9.455 222.482 9.65 222.167 9.89C221.867 10.145 221.687 10.58 221.687 11.615Z" />
</svg>