<svg width="214" height="30" viewBox="0 0 214 30" fill="none"
  xmlns="http://www.w3.org/2000/svg">
  
  <path
    d="M5.362 2.56L8.61 10.54H8.778L12.292 2.56H15.806V23H12.558V9.294H12.32L9.072 17.554H8.064L4.928 9.294H4.746V23H1.554V2.56H5.362Z"
    fill="url(#paint3_linear_1518_29)" />
  <path
    d="M25.4973 7.712C26.8133 7.712 27.9333 7.87067 28.8573 8.188C29.7906 8.496 30.5046 9 30.9993 9.7C31.5033 10.3907 31.7553 11.2913 31.7553 12.402V19.066C31.7553 19.374 31.7926 19.6073 31.8673 19.766C31.9513 19.9247 32.0959 20.032 32.3013 20.088C32.5066 20.1347 32.8099 20.144 33.2113 20.116V23C32.3713 23.2147 31.592 23.322 30.8733 23.322C30.0893 23.322 29.4826 23.2007 29.0533 22.958C28.6333 22.7153 28.3439 22.3887 28.1853 21.978C28.036 21.5673 27.9613 21.0633 27.9613 20.466L27.7373 20.214V12.57C27.7373 12.0567 27.6346 11.6413 27.4293 11.324C27.2239 10.9973 26.9439 10.7687 26.5893 10.638C26.2439 10.498 25.8193 10.4233 25.3153 10.414C24.8113 10.414 24.3773 10.4793 24.0133 10.61C23.6493 10.7407 23.3693 10.946 23.1733 11.226C22.9773 11.506 22.8793 11.8513 22.8793 12.262V12.808H19.3093V12.08C19.3093 10.7173 19.8039 9.64867 20.7933 8.874C21.7826 8.09934 23.3506 7.712 25.4973 7.712ZM29.4733 16.98C29.0346 16.8867 28.6099 16.812 28.1993 16.756C27.7886 16.6907 27.3453 16.658 26.8693 16.658C26.0386 16.658 25.3339 16.742 24.7553 16.91C24.1859 17.0687 23.7519 17.3067 23.4533 17.624C23.1639 17.932 23.0193 18.3147 23.0193 18.772C23.0193 19.1173 23.1033 19.4207 23.2713 19.682C23.4393 19.934 23.6819 20.13 23.9993 20.27C24.3166 20.4007 24.6946 20.466 25.1333 20.466C25.6933 20.466 26.2346 20.3587 26.7573 20.144C27.2893 19.92 27.7933 19.6073 28.2693 19.206L28.1993 21.222H27.5973L27.4293 21.446C27.0653 21.8287 26.6639 22.16 26.2253 22.44C25.7959 22.72 25.3153 22.9393 24.7833 23.098C24.2513 23.2567 23.6866 23.336 23.0893 23.336C22.2399 23.336 21.4933 23.1727 20.8493 22.846C20.2053 22.5193 19.7059 22.0573 19.3513 21.46C18.9966 20.8533 18.8193 20.144 18.8193 19.332C18.8193 17.9787 19.2906 16.9473 20.2333 16.238C21.1853 15.5287 22.3519 15.0667 23.7333 14.852C25.1146 14.6373 26.6219 14.558 28.2553 14.614L29.4733 16.98Z"
    fill="url(#paint3_linear_1518_29)" />
  <path
    d="M43.7006 10.792H43.9386V23H39.9206V10.694L40.5506 11.324H36.5886V8.048H43.4486L43.7006 10.792ZM50.5746 11.716C49.4266 11.716 48.4559 11.7487 47.6626 11.814C46.8692 11.8793 46.1179 12.0053 45.4086 12.192C44.7086 12.3787 44.0086 12.6587 43.3086 13.032V10.274H44.1626C44.8252 9.39667 45.5299 8.75267 46.2766 8.342C47.0326 7.922 47.9752 7.712 49.1046 7.712C49.6459 7.712 50.1359 7.768 50.5746 7.88V11.716ZM36.5886 19.724H48.3626V23H36.5886V19.724Z"
    fill="url(#paint3_linear_1518_29)" />
  <path
    d="M57.1158 3.96H61.1478V18.394C61.1478 19.038 61.2925 19.5093 61.5818 19.808C61.8805 20.0973 62.2678 20.242 62.7438 20.242C63.2105 20.242 63.5932 20.0973 63.8918 19.808C64.1998 19.5187 64.3538 19.0567 64.3538 18.422V17.456H67.1398V18.324C67.1398 19.472 66.9438 20.4147 66.5518 21.152C66.1692 21.8893 65.6045 22.4353 64.8578 22.79C64.1112 23.1447 63.1872 23.322 62.0858 23.322C60.4152 23.322 59.1692 22.9207 58.3478 22.118C57.5265 21.306 57.1158 20.0413 57.1158 18.324V3.96ZM66.9018 8.048V11.324H53.4618V8.048H66.9018Z"
    fill="url(#paint3_linear_1518_29)" />
  <path
    d="M70.3631 8.048H74.6751L78.4411 17.554H78.6371L81.9971 8.048H86.0291L80.6251 22.048C80.0558 23.532 79.4585 24.7313 78.8331 25.646C78.2078 26.5607 77.4378 27.2607 76.5231 27.746C75.6085 28.2313 74.4745 28.474 73.1211 28.474C72.8598 28.474 72.5938 28.46 72.3231 28.432C72.0618 28.4133 71.8051 28.39 71.5531 28.362C71.4505 28.3527 71.3478 28.3387 71.2451 28.32V24.736C71.3478 24.764 71.4505 24.7873 71.5531 24.806C71.8331 24.862 72.1085 24.904 72.3791 24.932C72.6591 24.96 72.9485 24.974 73.2471 24.974C73.9098 24.974 74.4465 24.8947 74.8571 24.736C75.2678 24.5867 75.5851 24.372 75.8091 24.092C76.0331 23.812 76.2105 23.4573 76.3411 23.028L77.1531 20.396L78.0911 22.454L77.3071 24.526L70.3631 8.048Z"
    fill="url(#paint3_linear_1518_29)" />
  <path
    d="M92.8224 23H88.8044V8.048H92.3184L92.5844 10.75H92.8224V23ZM98.1704 23V13.046C98.1704 12.514 98.0911 12.0893 97.9324 11.772C97.7831 11.4547 97.5637 11.2307 97.2744 11.1C96.9944 10.9693 96.6537 10.904 96.2524 10.904C95.5057 10.904 94.8011 11.0953 94.1384 11.478C93.4851 11.8607 92.8457 12.3927 92.2204 13.074V10.288H93.0324C93.8164 9.42934 94.6144 8.78534 95.4264 8.356C96.2477 7.92667 97.1951 7.712 98.2684 7.712C99.1364 7.712 99.8597 7.86134 100.438 8.16C101.017 8.45867 101.451 8.92534 101.74 9.56C102.039 10.1853 102.188 11.002 102.188 12.01V23H98.1704Z"
    fill="url(#paint3_linear_1518_29)" />
  <path
    d="M109.92 3.316C109.752 3.96934 109.537 4.67867 109.276 5.444C109.014 6.19067 108.734 6.94667 108.436 7.712C108.137 8.45867 107.829 9.17734 107.512 9.868H104.516C104.646 9.308 104.777 8.72934 104.908 8.132C105.038 7.53467 105.16 6.93734 105.272 6.34C105.402 5.724 105.514 5.136 105.608 4.576C105.72 4.016 105.813 3.49334 105.888 3.008H109.724L109.92 3.316Z"
    fill="url(#paint3_linear_1518_29)" />
  <path
    d="M119.042 7.712C120.423 7.712 121.59 7.88467 122.542 8.23C123.494 8.566 124.203 9.07 124.67 9.742C125.146 10.4047 125.361 11.2213 125.314 12.192L121.688 12.472C121.623 11.8187 121.361 11.3333 120.904 11.016C120.447 10.6893 119.742 10.526 118.79 10.526C117.931 10.526 117.269 10.652 116.802 10.904C116.345 11.1467 116.116 11.5013 116.116 11.968C116.116 12.276 116.223 12.5327 116.438 12.738C116.662 12.934 116.984 13.1067 117.404 13.256C117.824 13.396 118.468 13.578 119.336 13.802C119.672 13.886 119.961 13.956 120.204 14.012C121.473 14.3293 122.472 14.642 123.2 14.95C123.937 15.2487 124.535 15.6827 124.992 16.252C125.449 16.812 125.678 17.5587 125.678 18.492C125.678 19.5 125.403 20.368 124.852 21.096C124.311 21.8147 123.508 22.37 122.444 22.762C121.38 23.1447 120.083 23.336 118.552 23.336C117.161 23.336 115.999 23.182 115.066 22.874C114.142 22.5567 113.409 22.062 112.868 21.39C112.336 20.718 111.972 19.8313 111.776 18.73L115.444 18.338C115.584 18.898 115.794 19.3367 116.074 19.654C116.354 19.962 116.709 20.1813 117.138 20.312C117.567 20.4427 118.113 20.508 118.776 20.508C119.439 20.508 119.98 20.438 120.4 20.298C120.829 20.158 121.137 19.976 121.324 19.752C121.52 19.5187 121.618 19.2573 121.618 18.968C121.618 18.632 121.487 18.3613 121.226 18.156C120.974 17.9413 120.601 17.7547 120.106 17.596C119.611 17.4373 118.841 17.2367 117.796 16.994L117.446 16.91C116.354 16.658 115.435 16.3453 114.688 15.972C113.941 15.5987 113.358 15.1133 112.938 14.516C112.518 13.9093 112.308 13.1627 112.308 12.276C112.308 10.82 112.873 9.69534 114.002 8.902C115.141 8.10867 116.821 7.712 119.042 7.712Z"
    fill="url(#paint3_linear_1518_29)" />
  <path
    d="M149.401 2.56L151.039 14.586H151.305L153.377 5.962H155.869L157.703 14.586H157.955L159.691 2.56H163.401L160.181 23H156.849L154.469 11.884H154.301L151.795 23H148.729L145.523 2.56H149.401Z"
    fill="url(#paint3_linear_1518_29)" />
  <path
    d="M166.596 19.724H177.782V23H166.596V19.724ZM170.18 23L170.208 3.918L170.838 4.842H166.61V1.58L173.764 1.216L174.226 1.664L174.198 23H170.18Z"
    fill="url(#paint3_linear_1518_29)" />
  <path
    d="M195.831 15.594C195.831 17.3393 195.5 18.7953 194.837 19.962C194.184 21.1193 193.297 21.9733 192.177 22.524C191.057 23.0653 189.792 23.336 188.383 23.336C186.974 23.336 185.709 23.0653 184.589 22.524C183.478 21.9733 182.592 21.1193 181.929 19.962C181.266 18.7953 180.935 17.3393 180.935 15.594C180.935 13.8393 181.266 12.374 181.929 11.198C182.592 10.0127 183.483 9.13534 184.603 8.566C185.723 7.99667 186.983 7.712 188.383 7.712C189.783 7.712 191.043 7.99667 192.163 8.566C193.292 9.13534 194.184 10.0127 194.837 11.198C195.5 12.374 195.831 13.8393 195.831 15.594ZM191.771 15.58C191.771 14.432 191.626 13.508 191.337 12.808C191.048 12.0987 190.651 11.59 190.147 11.282C189.652 10.9647 189.064 10.806 188.383 10.806C187.702 10.806 187.109 10.9647 186.605 11.282C186.101 11.59 185.704 12.0987 185.415 12.808C185.135 13.508 184.995 14.432 184.995 15.58C184.995 16.7187 185.135 17.6333 185.415 18.324C185.704 19.0147 186.096 19.5047 186.591 19.794C187.095 20.0833 187.692 20.228 188.383 20.228C189.074 20.228 189.666 20.0833 190.161 19.794C190.656 19.5047 191.048 19.0147 191.337 18.324C191.626 17.6333 191.771 16.7187 191.771 15.58Z"
    fill="url(#paint3_linear_1518_29)" />
  <path
    d="M198.298 14.67C198.298 13.3073 198.518 12.1033 198.956 11.058C199.395 10.0127 200.034 9.196 200.874 8.60801C201.714 8.02 202.722 7.726 203.898 7.726C204.58 7.726 205.2 7.824 205.76 8.02C206.32 8.20667 206.806 8.46334 207.216 8.79C207.627 9.10734 207.958 9.47134 208.21 9.882H209.022V12.122C208.518 11.758 207.982 11.4873 207.412 11.31C206.852 11.1327 206.297 11.044 205.746 11.044C205.028 11.044 204.416 11.184 203.912 11.464C203.408 11.744 203.021 12.1547 202.75 12.696C202.489 13.2373 202.358 13.8953 202.358 14.67C202.358 15.4353 202.489 16.084 202.75 16.616C203.012 17.1387 203.394 17.5353 203.898 17.806C204.402 18.0767 205.014 18.212 205.732 18.212C206.302 18.212 206.866 18.1233 207.426 17.946C207.996 17.7687 208.528 17.498 209.022 17.134V19.388H208.224C207.739 20.0227 207.123 20.5407 206.376 20.942C205.639 21.3433 204.776 21.544 203.786 21.544C202.638 21.544 201.649 21.2547 200.818 20.676C199.997 20.0973 199.372 19.2947 198.942 18.268C198.513 17.232 198.298 16.0327 198.298 14.67ZM212.438 22.132C212.438 23.616 212.182 24.82 211.668 25.744C211.164 26.6773 210.399 27.3633 209.372 27.802C208.355 28.25 207.058 28.474 205.48 28.474C204.043 28.474 202.858 28.3013 201.924 27.956C201 27.62 200.296 27.1533 199.81 26.556C199.334 25.968 198.994 25.2633 198.788 24.442L202.456 23.7C202.736 24.3813 203.105 24.89 203.562 25.226C204.029 25.562 204.668 25.73 205.48 25.73C206.414 25.73 207.137 25.4827 207.65 24.988C208.164 24.5027 208.42 23.7 208.42 22.58V10.624H208.658L208.924 8.048H212.438V22.132Z"
    fill="url(#paint3_linear_1518_29)" />



      <defs>
    <linearGradient id="paint0_linear_1518_29" x1="2.88202" y1="3.09998"
      x2="24.6069" y2="22.2357" gradientUnits="userSpaceOnUse">
      <stop offset="0.2" stop-color="#666666" />
      <stop offset="0.4" stop-color="#444444" />
      <stop offset="0.6" stop-color="#222222" />
      <stop offset="0.8" />
    </linearGradient>
    <linearGradient id="paint1_linear_1518_29" x1="25.82" y1="2.065"
      x2="44.6485" y2="11.9041" gradientUnits="userSpaceOnUse">
      <stop offset="0.2" stop-color="#666666" />
      <stop offset="0.4" stop-color="#444444" />
      <stop offset="0.6" stop-color="#222222" />
      <stop offset="0.8" />
    </linearGradient>
    <linearGradient id="paint2_linear_1518_29" x1="41.004" y1="8.63501"
      x2="57.7007" y2="24.3884" gradientUnits="userSpaceOnUse">
      <stop offset="0.2" stop-color="#666666" />
      <stop offset="0.4" stop-color="#444444" />
      <stop offset="0.6" stop-color="#222222" />
      <stop offset="0.8" />
    </linearGradient>
    <linearGradient id="paint3_linear_1518_29" x1="58.767" y1="8.44"
      x2="81.0325" y2="25.2654" gradientUnits="userSpaceOnUse">
      <stop offset="0.2" stop-color="#666666" />
      <stop offset="0.4" stop-color="#444444" />
      <stop offset="0.6" stop-color="#222222" />
      <stop offset="0.8" />
    </linearGradient>
  </defs>
</svg>