<svg 
  viewBox="0 0 187 162" 
  xmlns="http://www.w3.org/2000/svg"
  aria-hidden="true"
  focusable="false"
>
  <path d="M126.183 68.5065L95.326 114.792C94.7396 115.671 93.4518 115.685 92.8473 114.818L60.4521 68.3375C58.5834 65.6563 54.5699 65.7985 52.8957 68.6053L2.44627 153.182C0.657071 156.182 2.81833 159.988 6.31096 159.988H22.2614C23.79 159.988 25.2141 159.212 26.0428 157.927L55.4762 112.305C56.0442 111.425 57.3169 111.383 57.9412 112.225L90.4651 156.061C92.288 158.518 95.9783 158.479 97.7488 155.984L128.662 112.425C129.284 111.548 130.601 111.592 131.164 112.51L158.946 157.839C159.764 159.174 161.217 159.988 162.783 159.988H180.322C183.814 159.988 185.975 156.182 184.186 153.182L133.792 68.6974C132.097 65.856 128.018 65.7536 126.183 68.5065ZM119.005 40.5492L98.0401 3.86032C96.3125 0.83715 91.9534 0.837154 90.2259 3.86032L69.2608 40.5493C67.5465 43.5492 69.7127 47.2819 73.1679 47.2819H115.098C118.553 47.2819 120.719 43.5492 119.005 40.5492Z" fill="currentColor" stroke="white" stroke-width="3"/>
</svg>
