<svg 
  xmlns="http://www.w3.org/2000/svg" 
  viewBox="0 0 179 28"
>
  <defs>
    <linearGradient id="Gradient1" x1="0" x2="1" y1="0" y2="1">
      <stop offset="0%" stop-color="#0009" />
      <stop offset="25%" stop-color="#0009"/>
      <stop offset="25%" stop-color="#3339" />
      <stop offset="50%" stop-color="#3339" />
      <stop offset="50%" stop-color="#9999" />
      <stop offset="75%" stop-color="#9999" />
      <stop offset="75%" stop-color="#DDD9" />
      <stop offset="100%" stop-color="#DDD9" />
    </linearGradient>

    <linearGradient id="Gradient2" x1="0" x2="1" y1="0" y2="1">
      <stop offset="0%" stop-color="#DDD9" />
      <stop offset="25%" stop-color="#DDD9" />
      <stop offset="25%" stop-color="#9999" />
      <stop offset="50%" stop-color="#9999" />
      <stop offset="50%" stop-color="#3339" />
      <stop offset="75%" stop-color="#3339" />
      <stop offset="75%" stop-color="#0009" />
      <stop offset="100%" stop-color="#0009" />
    </linearGradient>
  </defs>

  <path 
    fill="url(#Gradient1)" 
    stroke="url(#Gradient2)"
    stroke-width="0.5"
    d="M17 .6h2.6v8.5h-5s0-2.3-1.4-3a6.5 6.5 0 0 0-3.6-1c-1.1 0-2 .4-2.5.9-.6.5-1 1.2-1 2 0 .5.2.8.5 1 .2.3.6.6 1.1.8a51 51 0 0 1 7 1.6c.9.2 1.8.6 2.6 1 2.3 1.5 3.4 3.7 3.4 6.8 0 1.6-.3 3-1 4.2a6.7 6.7 0 0 1-3 2.7c-1.3.7-3 1-5 1a9 9 0 0 1-6-2.2v2.2h-5v-9.9h5s0 3 1.7 4.2c1 .8 2.3 1.1 3.7 1.1 1.3 0 2.3-.2 3-.7a3 3 0 0 0 1-2.2c0-.6-.2-1-.5-1.4-.3-.4-.7-.8-1.3-1l-1.5-.6a57.8 57.8 0 0 0-5.5-1.3c-.8-.2-1.6-.5-2.3-.9-1-.5-2-1.3-2.5-2.3-.7-1-1-2.2-1-3.7s.4-2.8 1-4a7.2 7.2 0 0 1 3-2.8C5.8.9 7.3.6 9 .6c1.2 0 2.2.2 3.2.6 1 .3 2.5 1.6 2.5 1.6V.6H17Zm20 5.7c2.2 0 4 .4 5.7 1.3 1.7.9 3 2.1 3.8 3.7.9 1.6 1.3 3.4 1.3 5.4 0 2-.4 3.8-1.3 5.4a9.3 9.3 0 0 1-3.8 3.7c-1.6.9-3.5 1.3-5.7 1.3s-4.1-.4-5.7-1.3a9.4 9.4 0 0 1-3.8-3.7 11 11 0 0 1-1.3-5.4c0-2 .4-3.8 1.3-5.4a9.4 9.4 0 0 1 3.8-3.7c1.6-.9 3.5-1.3 5.7-1.3Zm0 4.9c-1 0-2 .2-2.7.6-.8.5-1.4 1.1-1.8 2a7.7 7.7 0 0 0 0 5.9 4.6 4.6 0 0 0 4.5 2.5c1 0 2-.2 2.7-.6.7-.5 1.3-1.1 1.7-2a6.4 6.4 0 0 0 0-5.8c-.4-.9-1-1.5-1.7-2a6 6 0 0 0-2.7-.6ZM98.1 1h1.4v4.5h-2.6v16.7h2.7v4.4H89v-4.4h3.3V9.5l-5.2 8.7h-3.3l-5.3-8.7v12.7h3.3v4.4H71.3v-4.4h2.6V5.5h-2.5V1h8.3l5.7 9.8L91 1h7.1Zm15.5 5.3c2.2 0 4 .4 5.6 1.4 1.6 1 2.7 2.2 3.5 4 .8 1.6 1.2 3.5 1.2 5.6v1.4h-15.2c.3 1.1.8 2 1.7 2.6 1 .6 2 1 3.5 1A25 25 0 0 0 121 21l1.4-.4.6 2.3.6 2.3-1.5.4-4.4 1.1c-1.5.3-3 .4-4.4.4-2.2 0-4-.4-5.6-1.3a9 9 0 0 1-3.6-3.7 12 12 0 0 1 0-10.8 9.2 9.2 0 0 1 3.8-3.7c1.6-.9 3.5-1.3 5.6-1.3Zm0 4.9c-2.6 0-4.2 1-4.8 3.3h9.5a4 4 0 0 0-1.6-2.5 5 5 0 0 0-3-.8ZM137 .6h2.6V8h9.3v4.7h-9.4v6c0 2.3 1 3.5 2.8 3.5.7 0 1.5-.1 2.3-.4l3.1-1.2 1.5-.7.9 2 .8 2.3-1.4.7c-3 1.5-5.5 2.2-7.6 2.2-2.5 0-4.5-.7-5.8-2a9 9 0 0 1-2-6.2v-6.2h-5.4V8h5.5V.6h2.8Zm29 5.7c3.2 0 5.4.7 6.9 2 1.4 1.4 2 3.3 2 5.9v6.2c0 .6.2 1 .4 1.4.3.3.6.4 1 .4h2.1v4.4h-3.8a5 5 0 0 1-2.3-.5c-.7-.4-1.2-1-1.6-1.7-1.1.8-2.3 1.5-3.6 2a11 11 0 0 1-8-.1 5.6 5.6 0 0 1-2.8-2.4 7 7 0 0 1-1-3.6c0-2 .8-3.6 2.2-4.7a9.5 9.5 0 0 1 6-1.6c1.9 0 4 .2 6 .6V14c0-1-.2-1.7-.8-2.2-.6-.4-1.7-.6-3.2-.6-.9 0-1.8 0-2.9.3l-3 .8-1.6.5-.8-2.1-.8-2.5 1.5-.6a22.5 22.5 0 0 1 8.1-1.3Zm-2 12.1c-1 0-1.8.2-2.3.5a2 2 0 0 0-.8 1.6c0 .7.3 1.2.8 1.6a4 4 0 0 0 2.2.5c1 0 2-.2 3-.6 1-.4 1.8-1 2.7-1.6V19c-2-.4-3.8-.6-5.6-.6Z"
  />
</svg>