
<svg xmlns="http://www.w3.org/2000/svg" fill="none" viewBox="0 0 116 19">
  <path fill="#000" d="M12 0h1v5.4h-2c0-1-.8-2-1.7-2.5-.8-.4-1.8-.7-2.9-.7a4 4 0 0 0-2.5.8c-.6.5-.8 1.2-.8 2 0 .4 0 .7.3 1l.8.7 1.2.4a46.8 46.8 0 0 0 3.9.9c.5 0 1 .2 1.4.4 1 .4 1.8 1 2.3 1.7.6.7.9 1.7.9 2.9a5 5 0 0 1-2.8 4.5 8 8 0 0 1-6.2 0c-.8-.3-1.5-.8-2.1-1.5v2.1H.5v-6.3h2.2A5 5 0 0 0 4.3 15c1 .6 2 1 3.3 1 1.2 0 2.2-.3 2.8-.9.7-.5 1-1.2 1-2.1 0-.6-.1-1.1-.4-1.5-.3-.4-.8-.7-1.4-1l-1.2-.4a51.9 51.9 0 0 0-3.8-.8l-1.5-.5c-.8-.4-1.4-.8-1.8-1.4A4 4 0 0 1 .6 5 4.7 4.7 0 0 1 3.3.7 7 7 0 0 1 8.9.6c.8.3 1.5.8 2 1.3V0H12Zm13.1 4c1.4 0 2.6.2 3.7.8a7.2 7.2 0 0 1 3.4 6.2c0 1.4-.3 2.6-1 3.7-.5 1-1.4 1.9-2.4 2.5-1.1.6-2.3.9-3.7.9-1.3 0-2.5-.3-3.6-.9-1-.6-1.9-1.4-2.5-2.5a7.2 7.2 0 0 1 0-7.3 7 7 0 0 1 2.5-2.6c1.1-.6 2.3-.9 3.6-.9Zm0 2c-.9 0-1.7.3-2.5.7A4 4 0 0 0 21 8.5c-.4.7-.6 1.6-.6 2.5 0 1 .2 1.8.6 2.6.4.7 1 1.3 1.6 1.7a5 5 0 0 0 2.5.6 5 5 0 0 0 2.5-.6 4 4 0 0 0 1.7-1.7c.4-.8.6-1.6.6-2.6s-.2-1.8-.6-2.5c-.4-.8-1-1.4-1.7-1.8-.7-.4-1.5-.6-2.5-.6ZM61 .4h1v2h-1.7l.4 13.4h1.7v2h-6.5v-2h2.6l-.3-12-3.4 7.8h-2l-3.3-7.8-.3 12h2.6v2h-6.6v-2H47l.4-13.4h-1.7v-2h4.6l3.5 7.9 3.6-8H61ZM72 4c1.4 0 2.6.2 3.6.8 1 .6 1.8 1.3 2.3 2.4.5 1 .8 2.1 1 3.4v1H67.2c0 1.4.5 2.5 1.3 3.3.8.7 2 1 3.4 1a10.7 10.7 0 0 0 5-1.2l.8-.4.4 1 .5 1-1 .5c-.7.4-1.6.7-2.6 1-1 .2-2.1.3-3.1.3-1.5 0-2.8-.3-3.8-.8-1-.6-1.9-1.4-2.4-2.5-.5-1-.8-2.3-.8-3.8 0-1.4.3-2.6.9-3.7.6-1 1.4-1.9 2.4-2.5 1.1-.6 2.3-.9 3.7-.9Zm0 2a5 5 0 0 0-3 1c-.8.6-1.3 1.4-1.6 2.5h9A4 4 0 0 0 75 7c-.8-.6-1.8-.9-3-.9Zm15.5-6h1.1v5.4h7v2h-7v5.3c0 1.2.2 2 .6 2.5.4.5 1 .8 2 .8a6 6 0 0 0 2-.4l2.2-1c.1-.2.8-.6.8-.6a140.3 140.3 0 0 0 1 2l-.8.5-2.5 1.2c-1 .3-1.9.4-2.7.4-1.6 0-2.8-.4-3.6-1.3-.8-.9-1.2-2.1-1.2-3.9V7.4h-3.9v-2h4V0h1Zm20.4 4c1.8 0 3.2.3 4.1 1.2 1 .8 1.4 2 1.4 3.6v5.8c0 .8.3 1.2 1 1.2h1.4v2h-1.9c-.6 0-1.2-.2-1.6-.5a2 2 0 0 1-.9-1.4 8 8 0 0 1-2.6 1.6 7.7 7.7 0 0 1-5.6.1c-.7-.3-1.3-.8-1.8-1.5a4 4 0 0 1-.6-2.3c0-1.5.5-2.7 1.6-3.4a7.5 7.5 0 0 1 4.3-1.1c1.6 0 3 .3 4.5.7V8.8c0-1-.3-1.6-.8-2-.6-.5-1.4-.8-2.6-.8-.7 0-1.5.2-2.3.4a11.2 11.2 0 0 0-3 1.2l-.5-1-.4-.9.8-.4a11.4 11.4 0 0 1 5.5-1.4Zm-1.2 7.4c-1 0-2 .2-2.6.6-.7.3-1 1-1 1.8 0 .7.3 1.3.7 1.7a4 4 0 0 0 2.1.5c2 0 3.7-.8 5.3-2.4V12l-2.2-.5-2.3-.1Z"/>
</svg>