<svg width="101" height="41" viewBox="0 0 101 41" fill="none"
  xmlns="http://www.w3.org/2000/svg">
  <path
    d="M6.75641 2.00861L9.20429 19.9806H9.6018L12.6983 7.09266H16.4224L19.1632 19.9806H19.5398L22.1341 2.00861H27.6784L22.8664 32.5548H17.8869L14.3302 15.9427H14.0791L10.3341 32.5548H5.75216L0.960999 2.00861H6.75641Z"
    fill="black" />
  <path
    d="M32.4532 27.6589H49.1699V32.5547H32.4532V27.6589ZM37.8093 32.5547L37.8511 4.03795L38.7926 5.41881H32.4741V0.543973L43.1653 0L43.8557 0.669505L43.8139 32.5547H37.8093Z"
    fill="black" />
  <path
    d="M76.1429 21.4871C76.1429 24.0953 75.6483 26.2712 74.6575 28.0148C73.6816 29.7443 72.3561 31.0205 70.6823 31.8435C69.0085 32.6525 67.1181 33.057 65.0124 33.057C62.9068 33.057 61.0163 32.6525 59.3426 31.8435C57.6822 31.0205 56.3582 29.7443 55.3674 28.0148C54.3766 26.2712 53.8819 24.0953 53.8819 21.4871C53.8819 18.8648 54.3766 16.675 55.3674 14.9176C56.3582 13.1462 57.6897 11.8351 59.3635 10.9843C61.0372 10.1334 62.9202 9.70801 65.0124 9.70801C67.1046 9.70801 68.9876 10.1334 70.6614 10.9843C72.3486 11.8351 73.6816 13.1462 74.6575 14.9176C75.6483 16.675 76.1429 18.8648 76.1429 21.4871ZM70.0756 21.4662C70.0756 19.7506 69.8589 18.3697 69.427 17.3236C68.9951 16.2636 68.4018 15.5034 67.6486 15.0431C66.9089 14.5689 66.0301 14.3318 65.0124 14.3318C63.9947 14.3318 63.1085 14.5689 62.3553 15.0431C61.6021 15.5034 61.0088 16.2636 60.5769 17.3236C60.1585 18.3697 59.9493 19.7506 59.9493 21.4662C59.9493 23.1679 60.1585 24.5347 60.5769 25.5669C61.0088 26.5991 61.5947 27.3314 62.3344 27.7637C63.0876 28.1961 63.9798 28.4123 65.0124 28.4123C66.0451 28.4123 66.9298 28.1961 67.6695 27.7637C68.4093 27.3314 68.9951 26.5991 69.427 25.5669C69.8589 24.5347 70.0756 23.1679 70.0756 21.4662Z"
    fill="black" />
  <path
    d="M79.8297 20.1062C79.8297 18.0698 80.1585 16.2705 80.8131 14.7083C81.4691 13.1462 82.4241 11.9257 83.6794 11.047C84.9347 10.1682 86.4411 9.72888 88.1985 9.72888C89.2177 9.72888 90.1443 9.87534 90.9812 10.1682C91.8181 10.4472 92.5444 10.8308 93.1571 11.319C93.7713 11.7932 94.266 12.3372 94.6426 12.9509H95.856V16.2984C95.1028 15.7544 94.3018 15.3499 93.45 15.0849C92.6131 14.82 91.7837 14.6874 90.9603 14.6874C89.8873 14.6874 88.9727 14.8966 88.2195 15.3151C87.4663 15.7335 86.8879 16.3473 86.4829 17.1562C86.0929 17.9651 85.8971 18.9485 85.8971 20.1062C85.8971 21.2499 86.0929 22.2193 86.4829 23.0144C86.8745 23.7955 87.4454 24.3882 88.1985 24.7927C88.9517 25.1973 89.8663 25.3995 90.9393 25.3995C91.7912 25.3995 92.634 25.2669 93.4709 25.002C94.3227 24.737 95.1178 24.3325 95.856 23.7885V27.1569H94.6635C93.9387 28.1055 93.0181 28.8796 91.9018 29.4793C90.8004 30.079 89.5107 30.3789 88.0312 30.3789C86.3156 30.3789 84.8376 29.9466 83.5957 29.0818C82.3688 28.2169 81.4348 27.0175 80.7922 25.4832C80.151 23.9349 79.8297 22.1427 79.8297 20.1062ZM100.961 31.2577C100.961 33.4754 100.578 35.2747 99.8103 36.6555C99.0571 38.0503 97.9138 39.0755 96.3791 39.7311C94.8592 40.4006 92.9209 40.7353 90.5627 40.7353C88.4152 40.7353 86.6443 40.4773 85.2485 39.9612C83.8677 39.4591 82.8156 38.7616 82.0893 37.869C81.378 36.9903 80.8699 35.9372 80.562 34.7098L86.0436 33.6009C86.462 34.6191 87.0135 35.3793 87.6964 35.8814C88.3943 36.3836 89.3493 36.6346 90.5627 36.6346C91.9585 36.6346 93.039 36.2651 93.8057 35.5258C94.5738 34.8005 94.9564 33.6009 94.9564 31.9272V14.0597H95.3121L95.7096 10.2101H100.961V31.2577Z"
    fill="black" />
</svg>